<svg version="1.1" id="Layer_1" xmlns="http://www.w3.org/2000/svg" xmlns:xlink="http://www.w3.org/1999/xlink"
      x="0px" y="0px" viewBox="0 0 1052 244" style="enable-background:new 0 0 1052 244;" xml:space="preserve">
        <g>
          <a href="https://www.tamu.edu">
            <rect x="28.3" y="36.2" className="st0" width="171.4" height="172.7" />
            <g>

              <polygon className="st1" points="176.9,104.9 164.2,104.9 163.4,104.9 163.1,105.6 153.9,124.8 144.6,105.6 144.3,104.9 143.6,104.9 
                131.3,104.9 130.1,104.9 130.1,106.1 130.1,112.6 130.1,113.8 131.3,113.8 133.4,113.8 133.4,141.3 131.1,141.3 129.9,141.3 
                129.9,142.5 129.9,149 129.9,150.2 131.1,150.2 144.9,150.2 146.1,150.2 146.1,149 146.1,142.5 146.1,141.3 144.9,141.3 
                142.5,141.3 142.5,121.8 152.8,143.1 153.9,145.2 154.9,143.1 165.4,121.7 165.4,141.3 163.1,141.3 161.9,141.3 161.9,142.5 
                161.9,149 161.9,150.2 163.1,150.2 176.9,150.2 178.1,150.2 178.1,149 178.1,142.5 178.1,141.3 176.9,141.3 174.5,141.3 
                174.5,113.8 176.9,113.8 178.1,113.8 178.1,112.6 178.1,106.1 178.1,104.9 		" 
              />
              <path className="st1" d="M96.7,141.3H93l-12-27.6h1.1h1.2v-1.2v-6.6v-1.2h-1.2H65.3h-1.2v1.2v6.6v1.2h1.2h1.5l-11.9,27.6H51h-1.2v1.2
                v6.6v1.2H51h15.1h1.2V149v-6.6v-1.2h-1.2h-1.4l2-4.6h14.4l2,4.6h-1.5h-1.2v1.2v6.6v1.2h1.2h15.1h1.2V149v-6.6v-1.2H96.7z
                M77.3,127.8h-6.7l3.3-7.7L77.3,127.8z" 
              />
              <polygon className="st1" points="162.3,70.4 65.3,70.4 64,70.4 64,71.7 64,97.6 64,98.9 65.3,98.9 82.1,98.9 83.4,98.9 83.4,97.6 
                83.4,88 104.1,88 104.1,156.2 94.5,156.2 93.1,156.2 93.1,157.6 93.1,174.3 93.1,175.6 94.5,175.6 133.1,175.6 134.5,175.6 
                134.5,174.3 134.5,157.6 134.5,156.2 133.1,156.2 123.5,156.2 123.5,88 144.1,88 144.1,97.5 144.1,98.8 145.4,98.8 162.3,98.8 
                163.6,98.8 163.6,97.5 163.6,71.7 163.6,70.4 		" 
              />
              <g>
                <polygon className="st2" points="126.4,164.2 130.5,160 130.5,171.5 126.4,167.6 			" />
                <polygon className="st2" points="119.6,160.3 115.5,164.3 115.5,79.9 119.6,84 			" />
                <polygon className="st2" points="72.2,78.4 68,74.4 157.6,74.4 152.3,78.4 			" />
                <polygon className="st2" points="159.8,95.1 155.7,91.2 155.7,80.7 159.8,76.5 			" />
              </g>
            </g>
            <path className="st0" d="M205.7,205.5c0-1.9,1.5-3.4,3.4-3.4c1.9,0,3.4,1.5,3.4,3.4c0,1.9-1.5,3.4-3.4,3.4
              C207.3,208.9,205.7,207.3,205.7,205.5z M211.8,205.5c0-1.6-1.2-2.8-2.6-2.8c-1.4,0-2.6,1.2-2.6,2.8c0,1.6,1.2,2.8,2.6,2.8
              C210.6,208.2,211.8,207.1,211.8,205.5z M207.9,203.5h1.4c0.9,0,1.4,0.3,1.4,1.1c0,0.7-0.4,1-1,1l1,1.7H210l-1-1.7h-0.4v1.7h-0.7
              V203.5z M208.6,205.2h0.6c0.4,0,0.8-0.1,0.8-0.6c0-0.5-0.4-0.5-0.8-0.5h-0.6V205.2z" 
            />
          </a>
        </g>
        <a xlink:href="https://www.tamu.edu">
          <text transform="matrix(1 0 0 1 246.7129 86.1562)">
            <tspan x="0" y="0" className="st6 st7 st8">TEXAS A&amp;M UNIVERSITY</tspan>
          </text>
        </a>
        <a xlink:href="https://engineering.tamu.edu">
          <text transform="matrix(1 0 0 1 246.7129 172.6816)" className="st3 st10">College of Engineering</text>
        </a>
      </svg>